<?xml version="1.0" encoding="UTF-8" standalone="no"?>
<!-- Created with Inkscape (http://www.inkscape.org/) -->

<svg
   xmlns:dc="http://purl.org/dc/elements/1.1/"
   xmlns:cc="http://creativecommons.org/ns#"
   xmlns:rdf="http://www.w3.org/1999/02/22-rdf-syntax-ns#"
   xmlns:svg="http://www.w3.org/2000/svg"
   xmlns="http://www.w3.org/2000/svg"
   xmlns:sodipodi="http://sodipodi.sourceforge.net/DTD/sodipodi-0.dtd"
   xmlns:inkscape="http://www.inkscape.org/namespaces/inkscape"
   width="80"
   height="30"
   viewBox="0 0 80 30"
   id="svg2"
   version="1.1"
   inkscape:version="0.91 r13725"
   sodipodi:docname="hoogle-logo.svg">
  <defs
     id="defs4" />
  <sodipodi:namedview
     id="base"
     pagecolor="#ffffff"
     bordercolor="#666666"
     borderopacity="1.0"
     inkscape:pageopacity="0.0"
     inkscape:pageshadow="2"
     inkscape:zoom="5.6"
     inkscape:cx="41.413144"
     inkscape:cy="15.445594"
     inkscape:document-units="px"
     inkscape:current-layer="layer1"
     showgrid="false"
     units="px"
     inkscape:window-width="1366"
     inkscape:window-height="744"
     inkscape:window-x="0"
     inkscape:window-y="24"
     inkscape:window-maximized="1" />
  <metadata
     id="metadata7">
    <rdf:RDF>
      <cc:Work
         rdf:about="">
        <dc:format>image/svg+xml</dc:format>
        <dc:type
           rdf:resource="http://purl.org/dc/dcmitype/StillImage" />
        <dc:title></dc:title>
      </cc:Work>
    </rdf:RDF>
  </metadata>
  <g
     inkscape:label="Layer 1"
     inkscape:groupmode="layer"
     id="layer1"
     transform="translate(0,-1022.3622)">
    <text
       xml:space="preserve"
       style="font-style:normal;font-variant:normal;font-weight:normal;font-stretch:normal;font-size:25px;line-height:125%;font-family:sans-serif;-inkscape-font-specification:sans-serif;letter-spacing:0px;word-spacing:0px;fill:#0000ff;fill-opacity:1;stroke:none;stroke-width:1px;stroke-linecap:butt;stroke-linejoin:miter;stroke-opacity:1"
       x="-0.62500072"
       y="1044.0586"
       id="text3336"
       sodipodi:linespacing="125%"><tspan
         sodipodi:role="line"
         id="tspan3338"
         x="-0.62500072"
         y="1044.0586">H</tspan></text>
    <path
       sodipodi:type="spiral"
       style="fill:#00ff00;fill-opacity:1;fill-rule:evenodd;stroke:#000091;stroke-width:1px;stroke-linecap:butt;stroke-linejoin:miter;stroke-opacity:0"
       id="path3340"
       sodipodi:cx="25"
       sodipodi:cy="1037.2729"
       sodipodi:expansion="1"
       sodipodi:revolution="3.1121988"
       sodipodi:radius="7.424437"
       sodipodi:argument="-21.126272"
       sodipodi:t0="0"
       d="m 25,1037.2729 c -0.232785,-0.273 0.253251,-0.4485 0.453868,-0.3869 0.543659,0.167 0.576168,0.883 0.31994,1.2947 -0.458333,0.7364 -1.496836,0.7442 -2.135412,0.253 -0.937134,-0.721 -0.918107,-2.1194 -0.186011,-2.9762 0.975768,-1.1421 2.74492,-1.0945 3.816954,-0.1191 1.349046,1.2275 1.272081,3.372 0.05208,4.6578 -1.47758,1.5572 -3.999896,1.4504 -5.498498,-0.015 -1.766052,-1.7269 -1.629335,-4.6283 0.08184,-6.3393 1.975625,-1.9753 5.257098,-1.8085 7.180041,0.1488 2.18497,2.2241 1.987917,5.8861 -0.215773,8.0208 -2.472207,2.3948 -6.515317,2.1675 -8.861585,-0.2827 -2.604802,-2.7202 -2.34716,-7.1447 0.349701,-9.7024 1.250735,-1.1862 2.916048,-1.8884 4.635764,-1.978" />
    <path
       sodipodi:type="spiral"
       style="fill:#ffef00;fill-opacity:1;fill-rule:evenodd;stroke:#000091;stroke-width:1px;stroke-linecap:butt;stroke-linejoin:miter;stroke-opacity:0"
       id="path3340-6"
       sodipodi:cx="39.789429"
       sodipodi:cy="1037.428"
       sodipodi:expansion="1"
       sodipodi:revolution="3.1121988"
       sodipodi:radius="7.424437"
       sodipodi:argument="-21.126272"
       sodipodi:t0="0"
       d="m 39.789429,1037.428 c -0.232785,-0.2731 0.253251,-0.4485 0.453868,-0.3869 0.543658,0.1669 0.576168,0.8829 0.319939,1.2946 -0.458332,0.7364 -1.496836,0.7443 -2.135411,0.253 -0.937135,-0.721 -0.918107,-2.1193 -0.186011,-2.9762 0.975768,-1.142 2.74492,-1.0944 3.816954,-0.119 1.349046,1.2274 1.272081,3.3719 0.05208,4.6577 -1.47758,1.5572 -3.999896,1.4505 -5.498499,-0.015 -1.766051,-1.7269 -1.629335,-4.6283 0.08185,-6.3393 1.975625,-1.9753 5.257099,-1.8085 7.180042,0.1488 2.18497,2.2241 1.987917,5.8862 -0.215773,8.0209 -2.472207,2.3948 -6.515317,2.1674 -8.861585,-0.2828 -2.604803,-2.7202 -2.34716,-7.1446 0.349701,-9.7023 1.250735,-1.1862 2.916048,-1.8885 4.635763,-1.9781" />
    <text
       xml:space="preserve"
       style="font-style:normal;font-variant:normal;font-weight:normal;font-stretch:normal;font-size:22.5px;line-height:125%;font-family:Garuda;-inkscape-font-specification:Garuda;letter-spacing:0px;word-spacing:0px;fill:#ff0000;fill-opacity:1;stroke:none;stroke-width:1px;stroke-linecap:butt;stroke-linejoin:miter;stroke-opacity:1"
       x="46.964291"
       y="1042.7192"
       id="text4157"
       sodipodi:linespacing="125%"><tspan
         sodipodi:role="line"
         id="tspan4159"
         x="46.964291"
         y="1042.7192">g</tspan></text>
    <text
       xml:space="preserve"
       style="font-style:normal;font-weight:normal;font-size:25px;line-height:125%;font-family:sans-serif;letter-spacing:0px;word-spacing:0px;fill:#1900ff;fill-opacity:1;stroke:none;stroke-width:1px;stroke-linecap:butt;stroke-linejoin:miter;stroke-opacity:1"
       x="58.214283"
       y="1042.1837"
       id="text4161"
       sodipodi:linespacing="125%"><tspan
         sodipodi:role="line"
         id="tspan4163"
         x="58.214283"
         y="1042.1837">l</tspan></text>
    <text
       xml:space="preserve"
       style="font-style:normal;font-weight:normal;font-size:22.5px;line-height:125%;font-family:sans-serif;letter-spacing:0px;word-spacing:0px;fill:#4aff00;fill-opacity:1;stroke:none;stroke-width:1px;stroke-linecap:butt;stroke-linejoin:miter;stroke-opacity:1"
       x="64.107147"
       y="1042.7194"
       id="text4165"
       sodipodi:linespacing="125%"><tspan
         sodipodi:role="line"
         id="tspan4167"
         x="64.107147"
         y="1042.7194">e</tspan></text>
  </g>
</svg>
